G04*
G04 #@! TF.GenerationSoftware,Altium Limited,Altium Designer,19.0.14 (431)*
G04*
G04 Layer_Color=32896*
%FSLAX43Y43*%
%MOMM*%
G71*
G01*
G75*
%ADD11C,0.100*%
%ADD13C,0.200*%
%ADD16C,0.254*%
D11*
X-53Y12229D02*
Y24229D01*
D13*
X21701Y26020D02*
X21801D01*
X21701Y27320D02*
X21801D01*
X21667Y23353D02*
X21767D01*
X21667Y24653D02*
X21767D01*
X48345Y21475D02*
X49445D01*
X48345Y22975D02*
X49445D01*
X40909Y4488D02*
Y4588D01*
X39609Y4488D02*
Y4588D01*
X42222Y4903D02*
Y5003D01*
X43122Y4903D02*
Y5003D01*
X26448Y7181D02*
X26548D01*
X26448Y6281D02*
X26548D01*
X20151Y9767D02*
X21251D01*
X20151Y8267D02*
X21251D01*
X12504Y9199D02*
Y9299D01*
X13404Y9199D02*
Y9299D01*
X8959Y9210D02*
Y9310D01*
X8059Y9210D02*
Y9310D01*
X10218Y9199D02*
Y9299D01*
X11118Y9199D02*
Y9299D01*
X8059Y14682D02*
Y14782D01*
X8959Y14682D02*
Y14782D01*
X10218Y14682D02*
Y14782D01*
X11118Y14682D02*
Y14782D01*
X13404Y14682D02*
Y14782D01*
X12504Y14682D02*
Y14782D01*
X16214Y36310D02*
X17314D01*
X16214Y34810D02*
X17314D01*
X26366Y16271D02*
X26466D01*
X26366Y14971D02*
X26466D01*
X635Y31437D02*
X1635D01*
Y30937D01*
X1468Y30771D01*
X1135D01*
X968Y30937D01*
Y31437D01*
X1468Y29771D02*
X1635Y29938D01*
Y30271D01*
X1468Y30437D01*
X802D01*
X635Y30271D01*
Y29938D01*
X802Y29771D01*
X1635Y29438D02*
X635D01*
Y28938D01*
X802Y28771D01*
X968D01*
X1135Y28938D01*
Y29438D01*
Y28938D01*
X1301Y28771D01*
X1468D01*
X1635Y28938D01*
Y29438D01*
Y26772D02*
Y27438D01*
X635D01*
Y26772D01*
X1135Y27438D02*
Y27105D01*
X1635Y25772D02*
X635D01*
Y26272D01*
X802Y26439D01*
X1135D01*
X1301Y26272D01*
Y25772D01*
X302Y25106D02*
Y24939D01*
X468Y24773D01*
X1301D01*
Y25272D01*
X1135Y25439D01*
X802D01*
X635Y25272D01*
Y24773D01*
Y23940D02*
Y24273D01*
X802Y24439D01*
X1135D01*
X1301Y24273D01*
Y23940D01*
X1135Y23773D01*
X968D01*
Y24439D01*
D16*
X19397Y23495D02*
Y24495D01*
X18897D01*
X18731Y24328D01*
Y23995D01*
X18897Y23828D01*
X19397D01*
X17897Y24495D02*
X18231D01*
X18397Y24328D01*
Y23662D01*
X18231Y23495D01*
X17897D01*
X17731Y23662D01*
Y24328D01*
X17897Y24495D01*
X17398D02*
Y23495D01*
X16731D01*
X38481Y7366D02*
X37481D01*
Y6866D01*
X37648Y6700D01*
X37981D01*
X38148Y6866D01*
Y7366D01*
Y7033D02*
X38481Y6700D01*
X37481Y5700D02*
Y6366D01*
X38481D01*
Y5700D01*
X37981Y6366D02*
Y6033D01*
X37648Y4700D02*
X37481Y4867D01*
Y5200D01*
X37648Y5367D01*
X37815D01*
X37981Y5200D01*
Y4867D01*
X38148Y4700D01*
X38314D01*
X38481Y4867D01*
Y5200D01*
X38314Y5367D01*
X37481Y3701D02*
Y4367D01*
X38481D01*
Y3701D01*
X37981Y4367D02*
Y4034D01*
X37481Y3367D02*
Y2701D01*
Y3034D01*
X38481D01*
X19397Y25908D02*
Y26908D01*
X18897D01*
X18731Y26741D01*
Y26408D01*
X18897Y26241D01*
X19397D01*
X18397Y26908D02*
Y25908D01*
Y26408D01*
X17731D01*
Y26908D01*
Y25908D01*
X17398D02*
Y26574D01*
X17064Y26908D01*
X16731Y26574D01*
Y25908D01*
Y26408D01*
X17398D01*
X23003Y19558D02*
X24003D01*
Y19058D01*
X23836Y18892D01*
X23670D01*
X23503Y19058D01*
Y19558D01*
Y19058D01*
X23337Y18892D01*
X23170D01*
X23003Y19058D01*
Y19558D01*
Y18058D02*
Y18392D01*
X23170Y18558D01*
X23836D01*
X24003Y18392D01*
Y18058D01*
X23836Y17892D01*
X23170D01*
X23003Y18058D01*
Y17059D02*
Y17392D01*
X23170Y17559D01*
X23836D01*
X24003Y17392D01*
Y17059D01*
X23836Y16892D01*
X23170D01*
X23003Y17059D01*
Y16559D02*
Y15893D01*
Y16226D01*
X24003D01*
X23170Y15559D02*
X23003Y15393D01*
Y15059D01*
X23170Y14893D01*
X23836D01*
X24003Y15059D01*
Y15393D01*
X23836Y15559D01*
X23170D01*
X22225Y28194D02*
Y28994D01*
X21825D01*
X21692Y28860D01*
Y28594D01*
X21825Y28461D01*
X22225D01*
X21958D02*
X21692Y28194D01*
X20892D02*
X21425D01*
X20892Y28727D01*
Y28860D01*
X21025Y28994D01*
X21292D01*
X21425Y28860D01*
X20626D02*
X20492Y28994D01*
X20226D01*
X20092Y28860D01*
Y28727D01*
X20226Y28594D01*
X20359D01*
X20226D01*
X20092Y28461D01*
Y28327D01*
X20226Y28194D01*
X20492D01*
X20626Y28327D01*
X22479Y21794D02*
Y22593D01*
X22079D01*
X21946Y22460D01*
Y22193D01*
X22079Y22060D01*
X22479D01*
X22212D02*
X21946Y21794D01*
X21146D02*
X21679D01*
X21146Y22327D01*
Y22460D01*
X21279Y22593D01*
X21546D01*
X21679Y22460D01*
X20346Y21794D02*
X20880D01*
X20346Y22327D01*
Y22460D01*
X20480Y22593D01*
X20746D01*
X20880Y22460D01*
X50267Y24415D02*
X50400Y24549D01*
X50667D01*
X50800Y24415D01*
Y23882D01*
X50667Y23749D01*
X50400D01*
X50267Y23882D01*
X49467Y23749D02*
X50000D01*
X49467Y24282D01*
Y24415D01*
X49600Y24549D01*
X49867D01*
X50000Y24415D01*
X49201D02*
X49067Y24549D01*
X48801D01*
X48667Y24415D01*
Y24282D01*
X48801Y24149D01*
X48934D01*
X48801D01*
X48667Y24016D01*
Y23882D01*
X48801Y23749D01*
X49067D01*
X49201Y23882D01*
X41529Y1524D02*
Y2324D01*
X41129D01*
X40996Y2190D01*
Y1924D01*
X41129Y1791D01*
X41529D01*
X41262D02*
X40996Y1524D01*
X40729D02*
X40463D01*
X40596D01*
Y2324D01*
X40729Y2190D01*
X39530Y1524D02*
X40063D01*
X39530Y2057D01*
Y2190D01*
X39663Y2324D01*
X39930D01*
X40063Y2190D01*
X43409Y7626D02*
X43542Y7759D01*
X43809D01*
X43942Y7626D01*
Y7093D01*
X43809Y6960D01*
X43542D01*
X43409Y7093D01*
X43142Y7626D02*
X43009Y7759D01*
X42742D01*
X42609Y7626D01*
Y7493D01*
X42742Y7359D01*
X42876D01*
X42742D01*
X42609Y7226D01*
Y7093D01*
X42742Y6960D01*
X43009D01*
X43142Y7093D01*
X25248Y8667D02*
X25381Y8801D01*
X25648D01*
X25781Y8667D01*
Y8134D01*
X25648Y8001D01*
X25381D01*
X25248Y8134D01*
X24981Y8801D02*
X24448D01*
Y8667D01*
X24981Y8134D01*
Y8001D01*
X21438Y11334D02*
X21571Y11468D01*
X21838D01*
X21971Y11334D01*
Y10801D01*
X21838Y10668D01*
X21571D01*
X21438Y10801D01*
X21171Y10668D02*
X20905D01*
X21038D01*
Y11468D01*
X21171Y11334D01*
X20505Y10668D02*
X20238D01*
X20372D01*
Y11468D01*
X20505Y11334D01*
X13404Y6858D02*
X12604D01*
Y6458D01*
X12738Y6325D01*
X13004D01*
X13137Y6458D01*
Y6858D01*
Y6591D02*
X13404Y6325D01*
X12604Y5525D02*
Y6058D01*
X13004D01*
X12871Y5792D01*
Y5658D01*
X13004Y5525D01*
X13271D01*
X13404Y5658D01*
Y5925D01*
X13271Y6058D01*
X9017Y6858D02*
X8217D01*
Y6458D01*
X8351Y6325D01*
X8617D01*
X8750Y6458D01*
Y6858D01*
Y6591D02*
X9017Y6325D01*
X8351Y6058D02*
X8217Y5925D01*
Y5658D01*
X8351Y5525D01*
X8484D01*
X8617Y5658D01*
Y5792D01*
Y5658D01*
X8750Y5525D01*
X8884D01*
X9017Y5658D01*
Y5925D01*
X8884Y6058D01*
X10452Y6325D02*
X10318Y6458D01*
Y6725D01*
X10452Y6858D01*
X10985D01*
X11118Y6725D01*
Y6458D01*
X10985Y6325D01*
X11118Y5525D02*
Y6058D01*
X10585Y5525D01*
X10452D01*
X10318Y5658D01*
Y5925D01*
X10452Y6058D01*
X8890Y18798D02*
X8090D01*
Y18398D01*
X8224Y18265D01*
X8490D01*
X8623Y18398D01*
Y18798D01*
Y18532D02*
X8890Y18265D01*
Y17465D02*
Y17999D01*
X8357Y17465D01*
X8224D01*
X8090Y17599D01*
Y17865D01*
X8224Y17999D01*
X8890Y16799D02*
X8090D01*
X8490Y17199D01*
Y16666D01*
X10452Y18265D02*
X10318Y18398D01*
Y18665D01*
X10452Y18798D01*
X10985D01*
X11118Y18665D01*
Y18398D01*
X10985Y18265D01*
X11118Y17999D02*
Y17732D01*
Y17865D01*
X10318D01*
X10452Y17999D01*
X10318Y17332D02*
Y16799D01*
X10452D01*
X10985Y17332D01*
X11118D01*
X13589Y18798D02*
X12789D01*
Y18398D01*
X12923Y18265D01*
X13189D01*
X13322Y18398D01*
Y18798D01*
Y18532D02*
X13589Y18265D01*
Y17465D02*
Y17999D01*
X13056Y17465D01*
X12923D01*
X12789Y17599D01*
Y17865D01*
X12923Y17999D01*
X12789Y16666D02*
Y17199D01*
X13189D01*
X13056Y16932D01*
Y16799D01*
X13189Y16666D01*
X13456D01*
X13589Y16799D01*
Y17066D01*
X13456Y17199D01*
X16455Y37954D02*
X16588Y38087D01*
X16855D01*
X16988Y37954D01*
Y37420D01*
X16855Y37287D01*
X16588D01*
X16455Y37420D01*
X16188Y37287D02*
X15922D01*
X16055D01*
Y38087D01*
X16188Y37954D01*
X14989Y38087D02*
X15255Y37954D01*
X15522Y37687D01*
Y37420D01*
X15389Y37287D01*
X15122D01*
X14989Y37420D01*
Y37554D01*
X15122Y37687D01*
X15522D01*
X26548Y16891D02*
Y17691D01*
X26148D01*
X26015Y17557D01*
Y17291D01*
X26148Y17158D01*
X26548D01*
X26281D02*
X26015Y16891D01*
X25748D02*
X25482D01*
X25615D01*
Y17691D01*
X25748Y17557D01*
X25082Y16891D02*
X24815D01*
X24948D01*
Y17691D01*
X25082Y17557D01*
X0Y0D02*
Y52578D01*
Y0D02*
X59944D01*
Y52578D01*
X0D02*
X59944D01*
M02*
