M48
;Layer_Color=9474304
;FILE_FORMAT=4:3
METRIC,LZ
;TYPE=PLATED
T1F00S00C0.400
T2F00S00C1.000
T3F00S00C1.020
T4F00S00C1.050
T5F00S00C3.000
%
T01
X0010541Y0012397
X0016764Y0011811
X0018545Y0012065
X0017748Y0013929
X002286Y0013798
X0024093Y001366
X00245Y0011938
X0026173Y0013506
X002794Y001366
X0028569Y001301
X0028569Y001169
X00293Y0013929
X0030997Y0010911
X0034036Y0013718
X0036576
X0039116
X003859Y0008765
X0037592Y0008616
X0037084Y000926
X0036195Y0008783
X0041168Y0008529
X0041974Y0011049
X0043644Y0012506
X004482Y0011811
X0047255Y0010287
X0048387Y0013208
X0042177Y0000725
X0035306Y0002
Y0003048
X0032385Y0003113
X0028448Y0004579
X0028558Y0007308
X0026173Y000879
X0023958Y0005588
X0021993Y0004318
X0021209Y0003937
X0022618Y0002667
X0025019Y0003025
X0019651Y0001259
X0021601Y000696
X005461Y004191
X005588
X005715
X005842
X005334
X005207
X00508
X004953
X004826
X004699
X004572
X004445
X004318
X004191
X004064
X003937
X00381
X0038547Y0040294
X0041783Y0038894
X0032529Y0037719
Y0040259
X003302Y004191
X003175
X003048
X002921
X002794
X002667
X0027449Y0040259
X0029989
Y0037719
Y0035179
X0032529
Y0032639
X0029989
X0027449
Y0035179
Y0037719
X0020955Y0038894
X0021428Y0040294
X002159Y004191
X002032
X001905
X001778
X001651
X001524
X0016129Y0039439
X0016838
X0018161Y0033782
X0019274Y0032131
X0023241Y0030607
X00251Y0027513
X00265Y0027537
X0027812Y0020701
X0025013Y0020706
X0024892Y001905
X0024373Y0018006
X0029337Y0016383
X0028575Y0014598
X0034036Y0016258
X0036576
X0039116
Y0018798
X0036576
X0034036
X0033147Y0023622
X0032766Y0024384
X0033597Y0024638
X0035326Y0026372
X0037326Y0028133
X0036571Y0029599
X0036576Y0023622
X0041974Y0021272
X0043815Y0019685
Y0016637
X0045757Y0018034
X0048387Y0018006
X0046736Y0014859
X0046228Y0021754
X0044831Y0024003
X0047305Y0026229
X0049468Y0026289
X005334Y0018006
X002999Y0022225
X0016237Y002159
X00145Y002413
X0017095Y0028702
X0014097Y003266
X0013589Y0036438
X001397Y004191
X00127
X001143
X001016
X000889
X000762
X000635
X000508
X000381
X000254
X000127
X0006885Y003266
X0009271
X0008114Y003048
X0006223Y0020447
X0006985Y0018557
X0005924Y0016002
X0012446Y0018557
X001397Y0018506
T02
X0047371Y0033205
Y0035745
T03
X0004445Y0003429
X0006985
X0009525
X0012065
X0014605
X0017145
X0003429Y0025781
Y0028321
T04
X005659Y0015823
Y0018363
Y0020903
T05
X0003429Y0009906
X0056515Y0003557
Y0034417
X0003429
M30
