G04*
G04 #@! TF.GenerationSoftware,Altium Limited,Altium Designer,19.0.14 (431)*
G04*
G04 Layer_Color=8388736*
%FSLAX43Y43*%
%MOMM*%
G71*
G01*
G75*
%ADD11C,0.100*%
%ADD13C,0.200*%
%ADD16C,0.254*%
%ADD44R,1.720X2.220*%
%ADD45R,1.470X0.520*%
%ADD46R,2.020X1.920*%
%ADD47R,2.020X2.020*%
%ADD48R,1.120X2.570*%
%ADD49R,2.570X1.120*%
%ADD50C,1.120*%
%ADD51R,0.620X0.470*%
%ADD52R,1.220X1.220*%
%ADD53R,1.220X1.220*%
%ADD54R,2.020X2.520*%
%ADD55R,0.330X0.450*%
%ADD56R,0.450X0.330*%
%ADD57R,1.220X1.370*%
%ADD58R,2.228X1.517*%
%ADD59R,1.120X0.720*%
%ADD60R,1.120X1.520*%
%ADD61R,1.800X3.270*%
%ADD62O,1.920X0.420*%
%ADD63O,0.420X1.920*%
%ADD64R,1.320X1.320*%
%ADD65R,1.070X1.820*%
%ADD66R,1.820X1.070*%
%ADD67R,3.420X2.520*%
%ADD68R,1.120X2.520*%
%ADD69R,1.520X1.320*%
%ADD70C,1.720*%
%ADD71R,1.670X1.670*%
%ADD72C,1.670*%
%ADD73R,1.670X1.670*%
%ADD74C,5.120*%
D11*
X-53Y12229D02*
Y24229D01*
D13*
X635Y31437D02*
X1635D01*
Y30937D01*
X1468Y30771D01*
X1135D01*
X968Y30937D01*
Y31437D01*
X1468Y29771D02*
X1635Y29938D01*
Y30271D01*
X1468Y30437D01*
X802D01*
X635Y30271D01*
Y29938D01*
X802Y29771D01*
X1635Y29438D02*
X635D01*
Y28938D01*
X802Y28771D01*
X968D01*
X1135Y28938D01*
Y29438D01*
Y28938D01*
X1301Y28771D01*
X1468D01*
X1635Y28938D01*
Y29438D01*
Y26772D02*
Y27438D01*
X635D01*
Y26772D01*
X1135Y27438D02*
Y27105D01*
X1635Y25772D02*
X635D01*
Y26272D01*
X802Y26439D01*
X1135D01*
X1301Y26272D01*
Y25772D01*
X302Y25106D02*
Y24939D01*
X468Y24773D01*
X1301D01*
Y25272D01*
X1135Y25439D01*
X802D01*
X635Y25272D01*
Y24773D01*
Y23940D02*
Y24273D01*
X802Y24439D01*
X1135D01*
X1301Y24273D01*
Y23940D01*
X1135Y23773D01*
X968D01*
Y24439D01*
D16*
X0Y0D02*
Y52578D01*
Y0D02*
X59944D01*
Y52578D01*
X0D02*
X59944D01*
D44*
X3947Y15129D02*
D03*
Y21329D02*
D03*
D45*
X4072Y16929D02*
D03*
Y17579D02*
D03*
Y19529D02*
D03*
Y18879D02*
D03*
Y18229D02*
D03*
D46*
X1397Y22029D02*
D03*
Y14429D02*
D03*
D47*
Y19429D02*
D03*
Y17029D02*
D03*
D48*
X25100Y29599D02*
D03*
X26500D02*
D03*
X27900D02*
D03*
X29300D02*
D03*
X30700D02*
D03*
X32100D02*
D03*
X33500D02*
D03*
X34900D02*
D03*
D49*
X36295Y41694D02*
D03*
Y40294D02*
D03*
Y38894D02*
D03*
Y37494D02*
D03*
Y36094D02*
D03*
Y34694D02*
D03*
Y33294D02*
D03*
Y31894D02*
D03*
X23705D02*
D03*
Y33294D02*
D03*
Y34694D02*
D03*
Y36094D02*
D03*
Y37494D02*
D03*
Y38894D02*
D03*
Y40294D02*
D03*
Y41694D02*
D03*
D50*
X22860Y12218D02*
D03*
X23368Y15181D02*
D03*
X49530Y14097D02*
D03*
X45085Y15113D02*
D03*
X45201Y21082D02*
D03*
X42799Y35560D02*
D03*
X39243Y30861D02*
D03*
Y32766D02*
D03*
Y34671D02*
D03*
Y36576D02*
D03*
Y38894D02*
D03*
X33528Y27167D02*
D03*
X19801Y38894D02*
D03*
X19812Y40894D02*
D03*
X15113Y40640D02*
D03*
X17145Y36449D02*
D03*
X6223Y22813D02*
D03*
X17399Y12954D02*
D03*
X17145Y19506D02*
D03*
Y17607D02*
D03*
X27900Y1397D02*
D03*
D51*
X27246Y12360D02*
D03*
Y13010D02*
D03*
Y13660D02*
D03*
Y14310D02*
D03*
X25196Y14310D02*
D03*
Y13660D02*
D03*
Y13010D02*
D03*
Y12360D02*
D03*
D52*
X26173Y10541D02*
D03*
X24373D02*
D03*
X26659Y5969D02*
D03*
X28459D02*
D03*
X19801Y5842D02*
D03*
X21601D02*
D03*
X47255Y8890D02*
D03*
X45455D02*
D03*
X44947Y13208D02*
D03*
X46747D02*
D03*
X45201Y16891D02*
D03*
X47001D02*
D03*
X45201Y19177D02*
D03*
X47001D02*
D03*
X31761Y24130D02*
D03*
X29961D02*
D03*
X20690Y24003D02*
D03*
X22490D02*
D03*
X20701Y26289D02*
D03*
X22501D02*
D03*
X15737Y30734D02*
D03*
X17537D02*
D03*
X21347Y14531D02*
D03*
X19547D02*
D03*
X21347Y12192D02*
D03*
X19547D02*
D03*
X14870Y19812D02*
D03*
X13070D02*
D03*
X14870Y17145D02*
D03*
X13070D02*
D03*
X46620Y22987D02*
D03*
X44820D02*
D03*
D53*
X28569Y10552D02*
D03*
Y8752D02*
D03*
X30861Y5185D02*
D03*
Y6985D02*
D03*
X21209Y1259D02*
D03*
Y3059D02*
D03*
X33675D02*
D03*
Y1259D02*
D03*
X36850Y3059D02*
D03*
Y1259D02*
D03*
X39751Y7377D02*
D03*
Y5577D02*
D03*
X49468Y29475D02*
D03*
Y27675D02*
D03*
X42545Y28967D02*
D03*
Y27167D02*
D03*
X15240Y38238D02*
D03*
Y36438D02*
D03*
X15992Y10425D02*
D03*
Y8625D02*
D03*
X13368Y10425D02*
D03*
Y8625D02*
D03*
X10743Y10425D02*
D03*
Y8625D02*
D03*
X8118Y10425D02*
D03*
Y8625D02*
D03*
X9144Y12898D02*
D03*
Y14698D02*
D03*
X6858D02*
D03*
Y12898D02*
D03*
D54*
X33276Y5931D02*
D03*
X37376D02*
D03*
D55*
X23514Y1798D02*
D03*
X23944D02*
D03*
X24374D02*
D03*
X24804D02*
D03*
X25234D02*
D03*
X25664D02*
D03*
X26094D02*
D03*
X26524D02*
D03*
Y4298D02*
D03*
X26094D02*
D03*
X25664D02*
D03*
X25234D02*
D03*
X24804D02*
D03*
X24374D02*
D03*
X23944D02*
D03*
X23514D02*
D03*
D56*
Y2403D02*
D03*
Y2833D02*
D03*
Y3263D02*
D03*
X26524Y2403D02*
D03*
Y2833D02*
D03*
Y3263D02*
D03*
Y3693D02*
D03*
X23514D02*
D03*
D57*
X30968Y3175D02*
D03*
X28468D02*
D03*
D58*
X42177Y2324D02*
D03*
X51295D02*
D03*
X42177Y6820D02*
D03*
X51295D02*
D03*
D59*
X52218Y18956D02*
D03*
Y18006D02*
D03*
Y17056D02*
D03*
X49468D02*
D03*
Y18006D02*
D03*
Y18956D02*
D03*
X8277Y17607D02*
D03*
Y18557D02*
D03*
Y19507D02*
D03*
X11027D02*
D03*
Y18557D02*
D03*
Y17607D02*
D03*
D60*
X46355Y30183D02*
D03*
X47305Y27983D02*
D03*
X45405D02*
D03*
D61*
X8024Y22813D02*
D03*
X12804D02*
D03*
D62*
X31026Y12506D02*
D03*
Y13006D02*
D03*
Y13506D02*
D03*
Y14006D02*
D03*
Y14506D02*
D03*
Y15006D02*
D03*
Y15506D02*
D03*
Y16006D02*
D03*
Y16506D02*
D03*
Y17006D02*
D03*
Y17506D02*
D03*
Y18006D02*
D03*
Y18506D02*
D03*
Y19006D02*
D03*
Y19506D02*
D03*
Y20006D02*
D03*
X42126D02*
D03*
Y19506D02*
D03*
Y19006D02*
D03*
Y18506D02*
D03*
Y18006D02*
D03*
Y17506D02*
D03*
Y17006D02*
D03*
Y16506D02*
D03*
Y16006D02*
D03*
Y15506D02*
D03*
Y15006D02*
D03*
Y14506D02*
D03*
Y14006D02*
D03*
Y13506D02*
D03*
Y13006D02*
D03*
Y12506D02*
D03*
D63*
X32826Y21806D02*
D03*
X33326D02*
D03*
X33826D02*
D03*
X34326D02*
D03*
X34826D02*
D03*
X35326D02*
D03*
X35826D02*
D03*
X36326D02*
D03*
X36826D02*
D03*
X37326D02*
D03*
X37826D02*
D03*
X38326D02*
D03*
X38826D02*
D03*
X39326D02*
D03*
X39826D02*
D03*
X40326D02*
D03*
Y10706D02*
D03*
X39826D02*
D03*
X39326D02*
D03*
X38826D02*
D03*
X38326D02*
D03*
X37826D02*
D03*
X37326D02*
D03*
X36826D02*
D03*
X36326D02*
D03*
X35826D02*
D03*
X35326D02*
D03*
X34826D02*
D03*
X34326D02*
D03*
X33826D02*
D03*
X33326D02*
D03*
X32826D02*
D03*
D64*
X18322Y26162D02*
D03*
X16222D02*
D03*
X18322Y24130D02*
D03*
X16222D02*
D03*
D65*
X15745Y28321D02*
D03*
X18545D02*
D03*
D66*
X20320Y33785D02*
D03*
Y30985D02*
D03*
D67*
X10414Y38460D02*
D03*
D68*
X12714Y32660D02*
D03*
X10414D02*
D03*
X8114D02*
D03*
D69*
X10134Y28448D02*
D03*
X13234D02*
D03*
X10134Y26035D02*
D03*
X13234D02*
D03*
D70*
X47371Y33205D02*
D03*
Y35745D02*
D03*
D71*
X3429Y28321D02*
D03*
X56590Y15823D02*
D03*
D72*
X3429Y25781D02*
D03*
X56590Y20903D02*
D03*
Y18363D02*
D03*
X9525Y3429D02*
D03*
X12065D02*
D03*
X14605D02*
D03*
X17145D02*
D03*
X6985D02*
D03*
D73*
X4445D02*
D03*
D74*
X56515Y3557D02*
D03*
X3429Y9906D02*
D03*
X56515Y34417D02*
D03*
X3429D02*
D03*
M02*
