G04*
G04 #@! TF.GenerationSoftware,Altium Limited,Altium Designer,19.0.14 (431)*
G04*
G04 Layer_Physical_Order=2*
G04 Layer_Color=16711680*
%FSLAX43Y43*%
%MOMM*%
G71*
G01*
G75*
%ADD10C,0.250*%
%ADD11C,0.100*%
%ADD13C,0.200*%
%ADD14C,0.600*%
%ADD15C,0.400*%
%ADD16C,0.254*%
%ADD26R,1.100X1.100*%
%ADD27R,1.100X1.100*%
%ADD39R,0.950X1.700*%
%ADD75C,0.350*%
%ADD77C,1.600*%
%ADD78R,1.550X1.550*%
%ADD79C,1.550*%
%ADD80R,1.550X1.550*%
%ADD81C,0.600*%
%ADD82C,5.000*%
%ADD83R,1.250X1.500*%
%ADD84R,1.500X1.250*%
G36*
X59944Y0D02*
X0D01*
Y42361D01*
X59944D01*
Y0D01*
D02*
G37*
%LPC*%
G36*
X21428Y40783D02*
X21241Y40746D01*
X21082Y40640D01*
X20976Y40481D01*
X20939Y40294D01*
X20976Y40107D01*
X21082Y39948D01*
X21095Y39939D01*
Y39757D01*
X21101Y39728D01*
Y39484D01*
X20974Y39380D01*
X20955Y39383D01*
X20768Y39346D01*
X20609Y39240D01*
X20503Y39081D01*
X20466Y38894D01*
X20503Y38707D01*
X20593Y38572D01*
Y37776D01*
X20445Y37628D01*
X20367Y37511D01*
X20339Y37372D01*
Y29810D01*
X20367Y29671D01*
X20402Y29619D01*
X20303Y29538D01*
X18650Y31191D01*
Y33782D01*
Y34530D01*
X18819D01*
Y36590D01*
X18650D01*
Y38608D01*
X18613Y38795D01*
X18507Y38954D01*
X17676Y39785D01*
X17517Y39891D01*
X17330Y39928D01*
X16129D01*
X15942Y39891D01*
X15783Y39785D01*
X15677Y39626D01*
X15640Y39439D01*
X15677Y39252D01*
X15783Y39093D01*
X15942Y38987D01*
X16129Y38950D01*
X17127D01*
X17672Y38405D01*
Y36590D01*
X17509D01*
Y34530D01*
X17672D01*
Y33782D01*
Y30988D01*
X17709Y30801D01*
X17815Y30642D01*
X20178Y28279D01*
Y27600D01*
X19896D01*
Y25740D01*
X20178D01*
Y24933D01*
X19862D01*
Y23073D01*
X20178D01*
Y21717D01*
Y20362D01*
X18199Y18383D01*
X18093Y18224D01*
X18056Y18037D01*
Y12065D01*
Y11173D01*
X18093Y10986D01*
X18199Y10827D01*
X18815Y10211D01*
Y10047D01*
X18646D01*
Y7987D01*
X18987D01*
Y7463D01*
X19024Y7276D01*
X19130Y7117D01*
X19634Y6614D01*
X19793Y6507D01*
X19980Y6470D01*
X20593D01*
Y4064D01*
X20630Y3877D01*
X20736Y3718D01*
X20863Y3591D01*
X21022Y3485D01*
X21209Y3448D01*
X21396Y3485D01*
X21555Y3591D01*
X21661Y3750D01*
X21672Y3803D01*
X21803Y3865D01*
X21813Y3864D01*
X21993Y3829D01*
X22162Y3862D01*
X22227Y3819D01*
X22272Y3774D01*
X22256Y3695D01*
Y2989D01*
X22166Y2854D01*
X22129Y2667D01*
X22166Y2480D01*
X22272Y2321D01*
X22431Y2215D01*
X22618Y2178D01*
X22805Y2215D01*
X22964Y2321D01*
X23070Y2480D01*
X23107Y2667D01*
X23070Y2854D01*
X22980Y2989D01*
Y3545D01*
X23057Y3622D01*
X23135Y3739D01*
X23163Y3878D01*
Y6014D01*
X23882Y6733D01*
X23960Y6850D01*
X23988Y6989D01*
Y12975D01*
X24205Y13193D01*
X24280Y13208D01*
X24439Y13314D01*
X24545Y13473D01*
X24582Y13660D01*
X24574Y13701D01*
X25118Y14245D01*
X27770D01*
X27782Y14118D01*
X27753Y14112D01*
X27594Y14006D01*
X27488Y13847D01*
X27451Y13660D01*
X27488Y13473D01*
X27594Y13314D01*
X27629Y13290D01*
Y12319D01*
X27653Y12200D01*
X27720Y12099D01*
X28088Y11731D01*
X28080Y11690D01*
X28117Y11503D01*
X28223Y11344D01*
X28382Y11238D01*
X28569Y11201D01*
X28756Y11238D01*
X28915Y11344D01*
X29021Y11503D01*
X29058Y11690D01*
X29021Y11877D01*
X28915Y12036D01*
X28756Y12142D01*
X28569Y12179D01*
X28528Y12171D01*
X28251Y12448D01*
Y13290D01*
X28286Y13314D01*
X28392Y13473D01*
X28429Y13660D01*
X28392Y13847D01*
X28286Y14006D01*
X28127Y14112D01*
X28098Y14118D01*
X28110Y14245D01*
X28239D01*
X28388Y14146D01*
X28575Y14109D01*
X28723Y14138D01*
X28812Y14071D01*
X28833Y14040D01*
X28811Y13929D01*
X28848Y13742D01*
X28954Y13583D01*
X29113Y13477D01*
X29300Y13440D01*
X29487Y13477D01*
X29646Y13583D01*
X29752Y13742D01*
X29789Y13929D01*
X29752Y14116D01*
X29646Y14275D01*
X29611Y14299D01*
Y15150D01*
X29587Y15269D01*
X29520Y15370D01*
X29049Y15841D01*
X28948Y15908D01*
X28829Y15932D01*
X28271D01*
Y16551D01*
X26661D01*
Y14867D01*
X26245D01*
Y15421D01*
X25366D01*
X24487D01*
Y14617D01*
X24487D01*
X24523Y14530D01*
X24134Y14141D01*
X24093Y14149D01*
X23906Y14112D01*
X23747Y14006D01*
X23641Y13847D01*
X23604Y13660D01*
X23611Y13622D01*
X23399Y13410D01*
X23293Y13425D01*
X23260Y13444D01*
X23244Y13508D01*
X23312Y13610D01*
X23349Y13798D01*
X23312Y13985D01*
X23206Y14144D01*
X23047Y14250D01*
X22860Y14287D01*
X22673Y14250D01*
X22514Y14144D01*
X22408Y13985D01*
X22371Y13798D01*
X22408Y13610D01*
X22498Y13476D01*
Y11049D01*
X22526Y10910D01*
X22604Y10793D01*
X22625Y10772D01*
Y10121D01*
X22301D01*
Y9017D01*
Y7913D01*
X22625D01*
Y7555D01*
X22176Y7106D01*
X22072Y7137D01*
X22047Y7156D01*
X21947Y7306D01*
X21788Y7412D01*
X21601Y7449D01*
X20183D01*
X19965Y7666D01*
Y8842D01*
X19956Y8889D01*
Y10047D01*
X19793D01*
Y10414D01*
X19756Y10601D01*
X19650Y10760D01*
X19034Y11376D01*
Y12065D01*
Y17834D01*
X21013Y19813D01*
X21119Y19972D01*
X21156Y20159D01*
Y21228D01*
X26150D01*
X26337Y21265D01*
X26496Y21371D01*
X29020Y23895D01*
X32766D01*
X32953Y23932D01*
X33112Y24038D01*
X33218Y24197D01*
X33343Y24221D01*
X33451Y24148D01*
Y23350D01*
X32891Y22790D01*
X31750D01*
X31631Y22766D01*
X31530Y22699D01*
X28192Y19361D01*
X25261D01*
X25238Y19396D01*
X25079Y19502D01*
X24892Y19539D01*
X24705Y19502D01*
X24546Y19396D01*
X24440Y19237D01*
X24403Y19050D01*
X24440Y18863D01*
X24546Y18704D01*
X24705Y18598D01*
X24892Y18561D01*
X25079Y18598D01*
X25238Y18704D01*
X25261Y18739D01*
X28321D01*
X28440Y18763D01*
X28541Y18830D01*
X31879Y22168D01*
X33020D01*
X33139Y22192D01*
X33240Y22259D01*
X33982Y23001D01*
X34049Y23102D01*
X34073Y23221D01*
Y24378D01*
X34054Y24474D01*
X34081Y24610D01*
X34200Y24671D01*
X34436Y24435D01*
Y23749D01*
X34473Y23562D01*
X34579Y23403D01*
X35595Y22387D01*
X35754Y22281D01*
X35941Y22244D01*
X43561D01*
X43748Y22281D01*
X43907Y22387D01*
X45034Y23514D01*
X46533D01*
X46840Y23207D01*
Y21195D01*
X46866D01*
X46919Y21068D01*
X46390Y20539D01*
X46284Y20380D01*
X46247Y20193D01*
Y14859D01*
X46282Y14683D01*
X46277Y14651D01*
X46226Y14556D01*
X44249D01*
X44177Y14628D01*
Y16315D01*
X44267Y16450D01*
X44304Y16637D01*
X44267Y16824D01*
X44161Y16983D01*
X44002Y17089D01*
X43815Y17126D01*
X43628Y17089D01*
X43469Y16983D01*
X43363Y16824D01*
X43326Y16637D01*
X43363Y16450D01*
X43453Y16315D01*
Y14478D01*
X43481Y14339D01*
X43559Y14222D01*
X43843Y13938D01*
X43960Y13860D01*
X44099Y13832D01*
X47849D01*
X47988Y13860D01*
X48105Y13938D01*
X49172Y15005D01*
X53213D01*
X53352Y15033D01*
X53469Y15111D01*
X54485Y16127D01*
X54563Y16244D01*
X54591Y16383D01*
Y20193D01*
X54563Y20332D01*
X54485Y20449D01*
X52051Y22883D01*
Y30203D01*
X53215Y31367D01*
X53293Y31484D01*
X53321Y31623D01*
Y35179D01*
X53293Y35318D01*
X53215Y35435D01*
X49500Y39150D01*
X49383Y39228D01*
X49244Y39256D01*
X42105D01*
X41970Y39346D01*
X41783Y39383D01*
X41596Y39346D01*
X41437Y39240D01*
X41331Y39081D01*
X41294Y38894D01*
X41331Y38707D01*
X41437Y38548D01*
X41596Y38442D01*
X41783Y38405D01*
X41970Y38442D01*
X42105Y38532D01*
X49094D01*
X52597Y35029D01*
Y31773D01*
X51433Y30609D01*
X51355Y30492D01*
X51327Y30353D01*
Y22733D01*
X51355Y22594D01*
X51433Y22477D01*
X53867Y20043D01*
Y18417D01*
X53740Y18359D01*
X53702Y18392D01*
Y19304D01*
X53674Y19443D01*
X53596Y19560D01*
X51945Y21211D01*
X51828Y21289D01*
X51689Y21317D01*
X51024D01*
Y22025D01*
X50295D01*
X49566D01*
Y21317D01*
X48150D01*
Y23255D01*
X47985D01*
X47950Y23428D01*
X47844Y23587D01*
X47561Y23870D01*
X49496Y25805D01*
X49655Y25837D01*
X49814Y25943D01*
X49920Y26102D01*
X49957Y26289D01*
X49920Y26476D01*
X49814Y26635D01*
X49655Y26741D01*
X49468Y26778D01*
X49281Y26741D01*
X49122Y26635D01*
X49016Y26476D01*
X48984Y26317D01*
X47043Y24375D01*
X46923Y24455D01*
X46736Y24492D01*
X44831D01*
X44644Y24455D01*
X44485Y24349D01*
X43358Y23222D01*
X37039D01*
X36971Y23349D01*
X37028Y23435D01*
X37065Y23622D01*
X37028Y23809D01*
X36938Y23944D01*
Y24638D01*
X36910Y24777D01*
X36832Y24894D01*
X36324Y25402D01*
X36207Y25480D01*
X36068Y25508D01*
X35761D01*
X35472Y25797D01*
X35503Y25901D01*
X35523Y25926D01*
X35672Y26026D01*
X35778Y26185D01*
X35815Y26372D01*
X35778Y26559D01*
X35672Y26718D01*
X35513Y26824D01*
X35354Y26856D01*
X34776Y27434D01*
X34659Y27512D01*
X34520Y27540D01*
X28852D01*
X27180Y29212D01*
X27063Y29290D01*
X26924Y29318D01*
X22891D01*
X21963Y30246D01*
Y37072D01*
X22100Y37209D01*
X22178Y37326D01*
X22206Y37465D01*
Y38989D01*
X22178Y39128D01*
X22100Y39245D01*
X21825Y39520D01*
Y39751D01*
X21819Y39780D01*
Y40015D01*
X21880Y40107D01*
X21917Y40294D01*
X21880Y40481D01*
X21774Y40640D01*
X21615Y40746D01*
X21428Y40783D01*
D02*
G37*
G36*
X16093Y36664D02*
X15564D01*
Y35760D01*
X16093D01*
Y36664D01*
D02*
G37*
G36*
X15164D02*
X14635D01*
Y35760D01*
X15164D01*
Y36664D01*
D02*
G37*
G36*
X47371Y36733D02*
X47115Y36700D01*
X46877Y36601D01*
X46672Y36444D01*
X46515Y36239D01*
X46416Y36001D01*
X46383Y35745D01*
X46416Y35489D01*
X46515Y35251D01*
X46672Y35046D01*
X46877Y34889D01*
X47115Y34790D01*
X47371Y34756D01*
X47627Y34790D01*
X47865Y34889D01*
X48070Y35046D01*
X48227Y35251D01*
X48326Y35489D01*
X48359Y35745D01*
X48326Y36001D01*
X48227Y36239D01*
X48070Y36444D01*
X47865Y36601D01*
X47627Y36700D01*
X47371Y36733D01*
D02*
G37*
G36*
X16093Y35360D02*
X15564D01*
Y34456D01*
X16093D01*
Y35360D01*
D02*
G37*
G36*
X15164D02*
X14635D01*
Y34456D01*
X15164D01*
Y35360D01*
D02*
G37*
G36*
X47371Y34193D02*
X47115Y34160D01*
X46877Y34061D01*
X46672Y33904D01*
X46515Y33699D01*
X46416Y33461D01*
X46383Y33205D01*
X46416Y32949D01*
X46515Y32711D01*
X46672Y32506D01*
X46877Y32349D01*
X47115Y32250D01*
X47371Y32216D01*
X47627Y32250D01*
X47865Y32349D01*
X48070Y32506D01*
X48227Y32711D01*
X48326Y32949D01*
X48359Y33205D01*
X48326Y33461D01*
X48227Y33699D01*
X48070Y33904D01*
X47865Y34061D01*
X47627Y34160D01*
X47371Y34193D01*
D02*
G37*
G36*
X4458Y29350D02*
X3629D01*
Y28521D01*
X4458D01*
Y29350D01*
D02*
G37*
G36*
X3229D02*
X2400D01*
Y28521D01*
X3229D01*
Y29350D01*
D02*
G37*
G36*
X4458Y28121D02*
X3629D01*
Y27292D01*
X4458D01*
Y28121D01*
D02*
G37*
G36*
X3229D02*
X2400D01*
Y27292D01*
X3229D01*
Y28121D01*
D02*
G37*
G36*
X51024Y23329D02*
X50495D01*
Y22425D01*
X51024D01*
Y23329D01*
D02*
G37*
G36*
X50095D02*
X49566D01*
Y22425D01*
X50095D01*
Y23329D01*
D02*
G37*
G36*
X56790Y21915D02*
Y21103D01*
X57602D01*
X57593Y21172D01*
X57489Y21422D01*
X57324Y21637D01*
X57109Y21802D01*
X56859Y21906D01*
X56790Y21915D01*
D02*
G37*
G36*
X56390D02*
X56321Y21906D01*
X56071Y21802D01*
X55856Y21637D01*
X55691Y21422D01*
X55587Y21172D01*
X55578Y21103D01*
X56390D01*
Y21915D01*
D02*
G37*
G36*
X57602Y20703D02*
X56790D01*
Y19891D01*
X56859Y19900D01*
X57109Y20004D01*
X57324Y20169D01*
X57489Y20384D01*
X57593Y20634D01*
X57602Y20703D01*
D02*
G37*
G36*
X56390D02*
X55578D01*
X55587Y20634D01*
X55691Y20384D01*
X55856Y20169D01*
X56071Y20004D01*
X56321Y19900D01*
X56390Y19891D01*
Y20703D01*
D02*
G37*
G36*
X56590Y19326D02*
X56341Y19293D01*
X56108Y19197D01*
X55909Y19044D01*
X55756Y18845D01*
X55660Y18612D01*
X55627Y18363D01*
X55660Y18114D01*
X55756Y17881D01*
X55909Y17682D01*
X56108Y17529D01*
X56341Y17433D01*
X56590Y17400D01*
X56839Y17433D01*
X57072Y17529D01*
X57271Y17682D01*
X57424Y17881D01*
X57520Y18114D01*
X57553Y18363D01*
X57520Y18612D01*
X57424Y18845D01*
X57271Y19044D01*
X57072Y19197D01*
X56839Y19293D01*
X56590Y19326D01*
D02*
G37*
G36*
X24373Y18495D02*
X24186Y18458D01*
X24027Y18352D01*
X23921Y18193D01*
X23884Y18006D01*
X23921Y17819D01*
X24027Y17660D01*
X24186Y17554D01*
X24373Y17517D01*
X24560Y17554D01*
X24719Y17660D01*
X24743Y17695D01*
X27585D01*
X28856Y16424D01*
X28848Y16383D01*
X28885Y16196D01*
X28991Y16037D01*
X29150Y15931D01*
X29337Y15894D01*
X29524Y15931D01*
X29683Y16037D01*
X29789Y16196D01*
X29826Y16383D01*
X29789Y16570D01*
X29683Y16729D01*
X29524Y16835D01*
X29337Y16872D01*
X29296Y16864D01*
X27934Y18226D01*
X27833Y18293D01*
X27714Y18317D01*
X24743D01*
X24719Y18352D01*
X24560Y18458D01*
X24373Y18495D01*
D02*
G37*
G36*
X11472Y16436D02*
X10868D01*
Y15832D01*
X11472D01*
Y16436D01*
D02*
G37*
G36*
X13758D02*
X13154D01*
Y15832D01*
X13758D01*
Y16436D01*
D02*
G37*
G36*
X10468D02*
X9864D01*
Y15832D01*
X10468D01*
Y16436D01*
D02*
G37*
G36*
X12754D02*
X12150D01*
Y15832D01*
X12754D01*
Y16436D01*
D02*
G37*
G36*
X26245Y16625D02*
X25566D01*
Y15821D01*
X26245D01*
Y16625D01*
D02*
G37*
G36*
X25166D02*
X24487D01*
Y15821D01*
X25166D01*
Y16625D01*
D02*
G37*
G36*
X3429Y26744D02*
X3180Y26711D01*
X2947Y26615D01*
X2748Y26462D01*
X2595Y26263D01*
X2499Y26030D01*
X2466Y25781D01*
X2499Y25532D01*
X2595Y25299D01*
X2748Y25100D01*
X2947Y24947D01*
X3180Y24851D01*
X3429Y24818D01*
X3678Y24851D01*
X3911Y24947D01*
X4110Y25100D01*
X4263Y25299D01*
X4313Y25419D01*
X6073D01*
X8147Y23345D01*
Y16362D01*
X7779D01*
Y14902D01*
X9239D01*
Y16362D01*
X8871D01*
Y23495D01*
X8843Y23634D01*
X8765Y23751D01*
X6479Y26037D01*
X6362Y26115D01*
X6223Y26143D01*
X4313D01*
X4263Y26263D01*
X4110Y26462D01*
X3911Y26615D01*
X3678Y26711D01*
X3429Y26744D01*
D02*
G37*
G36*
X57545Y16778D02*
X55635D01*
Y14868D01*
X57545D01*
Y16778D01*
D02*
G37*
G36*
X13758Y15432D02*
X13154D01*
Y14828D01*
X13758D01*
Y15432D01*
D02*
G37*
G36*
X12754D02*
X12150D01*
Y14828D01*
X12754D01*
Y15432D01*
D02*
G37*
G36*
X11472D02*
X10868D01*
Y14828D01*
X11472D01*
Y15432D01*
D02*
G37*
G36*
X10468D02*
X9864D01*
Y14828D01*
X10468D01*
Y15432D01*
D02*
G37*
G36*
X9239Y14562D02*
X7779D01*
Y13102D01*
X9239D01*
Y13470D01*
X9938D01*
Y13102D01*
X11398D01*
Y13470D01*
X12224D01*
Y13102D01*
X13684D01*
Y13470D01*
X16244D01*
X17164Y12550D01*
Y12274D01*
X17037Y12206D01*
X16951Y12263D01*
X16792Y12295D01*
X16434Y12653D01*
X16317Y12731D01*
X16178Y12759D01*
X10863D01*
X10728Y12849D01*
X10541Y12886D01*
X10354Y12849D01*
X10195Y12743D01*
X10089Y12584D01*
X10052Y12397D01*
X10089Y12210D01*
X10195Y12051D01*
X10354Y11945D01*
X10541Y11908D01*
X10728Y11945D01*
X10863Y12035D01*
X16028D01*
X16280Y11783D01*
X16312Y11624D01*
X16418Y11465D01*
X16577Y11359D01*
X16764Y11322D01*
X16951Y11359D01*
X17037Y11416D01*
X17164Y11348D01*
Y9413D01*
X17037Y9374D01*
X17020Y9400D01*
X16015Y10405D01*
X15898Y10483D01*
X15759Y10511D01*
X13684D01*
Y10879D01*
X12224D01*
Y10522D01*
X11398D01*
Y10879D01*
X9938D01*
Y10522D01*
X9239D01*
Y10890D01*
X7779D01*
Y9430D01*
X9239D01*
Y9798D01*
X9938D01*
Y9419D01*
X11398D01*
Y9798D01*
X12224D01*
Y9419D01*
X13684D01*
Y9787D01*
X15609D01*
X16402Y8994D01*
Y7747D01*
X16430Y7608D01*
X16508Y7491D01*
X18815Y5184D01*
Y2921D01*
X18843Y2782D01*
X18921Y2665D01*
X21239Y347D01*
X21356Y269D01*
X21495Y241D01*
X37306D01*
X37445Y269D01*
X37562Y347D01*
X38737Y1522D01*
X38815Y1639D01*
X38843Y1778D01*
Y7727D01*
X38815Y7866D01*
X38737Y7983D01*
X38076Y8644D01*
X38044Y8803D01*
X37938Y8962D01*
X37779Y9068D01*
X37592Y9105D01*
X37551Y9147D01*
X37573Y9260D01*
X37536Y9447D01*
X37430Y9606D01*
X37271Y9712D01*
X37084Y9749D01*
X36897Y9712D01*
X36738Y9606D01*
X36690Y9534D01*
X36573Y9571D01*
X36561Y9682D01*
X36804Y9925D01*
X39601D01*
X39897Y9629D01*
Y6393D01*
X39329D01*
Y4783D01*
X41189D01*
Y5491D01*
X41942D01*
Y5123D01*
X43402D01*
Y6583D01*
X41942D01*
Y6215D01*
X41189D01*
Y6393D01*
X40621D01*
Y8255D01*
X40748Y8294D01*
X40822Y8183D01*
X40981Y8077D01*
X41168Y8040D01*
X41355Y8077D01*
X41514Y8183D01*
X41620Y8342D01*
X41657Y8529D01*
X41649Y8570D01*
X41774Y8695D01*
X42534D01*
X42653Y8719D01*
X42754Y8786D01*
X45040Y11072D01*
X45107Y11173D01*
X45131Y11292D01*
Y11441D01*
X45166Y11465D01*
X45272Y11624D01*
X45309Y11811D01*
X45272Y11998D01*
X45166Y12157D01*
X45007Y12263D01*
X44820Y12300D01*
X44633Y12263D01*
X44474Y12157D01*
X44368Y11998D01*
X44331Y11811D01*
X44368Y11624D01*
X44474Y11465D01*
X44430Y11342D01*
X42405Y9317D01*
X41645D01*
X41526Y9294D01*
X41425Y9226D01*
X41209Y9010D01*
X41168Y9018D01*
X40981Y8981D01*
X40822Y8875D01*
X40748Y8764D01*
X40621Y8803D01*
Y9779D01*
X40593Y9918D01*
X40515Y10035D01*
X40007Y10543D01*
X39890Y10621D01*
X39751Y10649D01*
X36654D01*
X36516Y10621D01*
X36398Y10543D01*
X35939Y10084D01*
X35861Y9966D01*
X35833Y9828D01*
Y9105D01*
X35743Y8970D01*
X35706Y8783D01*
X35743Y8596D01*
X35849Y8437D01*
X36008Y8331D01*
X36195Y8294D01*
X36382Y8331D01*
X36438Y8368D01*
X36565Y8300D01*
Y8031D01*
X36593Y7892D01*
X36671Y7775D01*
X37484Y6962D01*
Y2563D01*
X36426Y1505D01*
X21994D01*
X20174Y3325D01*
Y5715D01*
X20146Y5854D01*
X20068Y5971D01*
X17888Y8151D01*
Y12700D01*
X17860Y12839D01*
X17782Y12956D01*
X16650Y14088D01*
X16533Y14166D01*
X16394Y14194D01*
X13684D01*
Y14562D01*
X12224D01*
Y14194D01*
X11398D01*
Y14562D01*
X9938D01*
Y14194D01*
X9239D01*
Y14562D01*
D02*
G37*
G36*
X21901Y10121D02*
X21372D01*
Y9217D01*
X21901D01*
Y10121D01*
D02*
G37*
G36*
X11472Y9153D02*
X10868D01*
Y8549D01*
X11472D01*
Y9153D01*
D02*
G37*
G36*
X13758D02*
X13154D01*
Y8549D01*
X13758D01*
Y9153D01*
D02*
G37*
G36*
X12754D02*
X12150D01*
Y8549D01*
X12754D01*
Y9153D01*
D02*
G37*
G36*
X10468D02*
X9864D01*
Y8549D01*
X10468D01*
Y9153D01*
D02*
G37*
G36*
X59108Y12026D02*
X48743D01*
Y8349D01*
X59108D01*
Y12026D01*
D02*
G37*
G36*
X21901Y8817D02*
X21372D01*
Y7913D01*
X21901D01*
Y8817D01*
D02*
G37*
G36*
X6223Y20936D02*
X6036Y20899D01*
X5877Y20793D01*
X5771Y20634D01*
X5734Y20447D01*
X5771Y20260D01*
X5877Y20101D01*
X6036Y19995D01*
X6195Y19963D01*
X6623Y19535D01*
Y18879D01*
X6533Y18744D01*
X6496Y18557D01*
X6533Y18370D01*
X6623Y18235D01*
Y8636D01*
X6651Y8497D01*
X6729Y8380D01*
X6983Y8126D01*
X7100Y8048D01*
X7239Y8020D01*
X7779D01*
Y7630D01*
X9239D01*
Y9090D01*
X7779D01*
Y8744D01*
X7389D01*
X7347Y8786D01*
Y18235D01*
X7437Y18370D01*
X7474Y18557D01*
X7437Y18744D01*
X7347Y18879D01*
Y19685D01*
X7319Y19824D01*
X7241Y19941D01*
X6707Y20475D01*
X6675Y20634D01*
X6569Y20793D01*
X6410Y20899D01*
X6223Y20936D01*
D02*
G37*
G36*
X13758Y8149D02*
X13154D01*
Y7545D01*
X13758D01*
Y8149D01*
D02*
G37*
G36*
X12754D02*
X12150D01*
Y7545D01*
X12754D01*
Y8149D01*
D02*
G37*
G36*
X11472D02*
X10868D01*
Y7545D01*
X11472D01*
Y8149D01*
D02*
G37*
G36*
X10468D02*
X9864D01*
Y7545D01*
X10468D01*
Y8149D01*
D02*
G37*
G36*
X28202Y7535D02*
X27598D01*
Y6931D01*
X28202D01*
Y7535D01*
D02*
G37*
G36*
X27198D02*
X26594D01*
Y6931D01*
X27198D01*
Y7535D01*
D02*
G37*
G36*
X26328Y7461D02*
X24868D01*
Y7016D01*
X24570D01*
X24461Y6995D01*
X24368Y6933D01*
X23801Y6366D01*
X23739Y6273D01*
X23718Y6164D01*
Y6005D01*
X23612Y5934D01*
X23506Y5775D01*
X23469Y5588D01*
X23506Y5401D01*
X23612Y5242D01*
X23771Y5136D01*
X23958Y5099D01*
X24145Y5136D01*
X24304Y5242D01*
X24410Y5401D01*
X24447Y5588D01*
X24410Y5775D01*
X24304Y5934D01*
X24304Y6061D01*
X24688Y6446D01*
X24868D01*
Y6001D01*
X26328D01*
Y7461D01*
D02*
G37*
G36*
X28202Y6531D02*
X27598D01*
Y5927D01*
X28202D01*
Y6531D01*
D02*
G37*
G36*
X27198D02*
X26594D01*
Y5927D01*
X27198D01*
Y6531D01*
D02*
G37*
G36*
X43476Y4857D02*
X42872D01*
Y4253D01*
X43476D01*
Y4857D01*
D02*
G37*
G36*
X42472D02*
X41868D01*
Y4253D01*
X42472D01*
Y4857D01*
D02*
G37*
G36*
X41263Y4367D02*
X40459D01*
Y3688D01*
X41263D01*
Y4367D01*
D02*
G37*
G36*
X40059D02*
X39255D01*
Y3688D01*
X40059D01*
Y4367D01*
D02*
G37*
G36*
X9725Y4441D02*
Y3629D01*
X10537D01*
X10528Y3698D01*
X10424Y3948D01*
X10259Y4163D01*
X10044Y4328D01*
X9794Y4432D01*
X9725Y4441D01*
D02*
G37*
G36*
X9325D02*
X9256Y4432D01*
X9006Y4328D01*
X8791Y4163D01*
X8626Y3948D01*
X8522Y3698D01*
X8513Y3629D01*
X9325D01*
Y4441D01*
D02*
G37*
G36*
X43476Y3853D02*
X42872D01*
Y3249D01*
X43476D01*
Y3853D01*
D02*
G37*
G36*
X42472D02*
X41868D01*
Y3249D01*
X42472D01*
Y3853D01*
D02*
G37*
G36*
X41263Y3288D02*
X40459D01*
Y2609D01*
X41263D01*
Y3288D01*
D02*
G37*
G36*
X40059D02*
X39255D01*
Y2609D01*
X40059D01*
Y3288D01*
D02*
G37*
G36*
X5400Y4384D02*
X3490D01*
Y2474D01*
X5400D01*
Y4384D01*
D02*
G37*
G36*
X17145Y4392D02*
X16896Y4359D01*
X16663Y4263D01*
X16464Y4110D01*
X16311Y3911D01*
X16215Y3678D01*
X16182Y3429D01*
X16215Y3180D01*
X16311Y2947D01*
X16464Y2748D01*
X16663Y2595D01*
X16896Y2499D01*
X17145Y2466D01*
X17394Y2499D01*
X17627Y2595D01*
X17826Y2748D01*
X17979Y2947D01*
X18075Y3180D01*
X18108Y3429D01*
X18075Y3678D01*
X17979Y3911D01*
X17826Y4110D01*
X17627Y4263D01*
X17394Y4359D01*
X17145Y4392D01*
D02*
G37*
G36*
X14605D02*
X14356Y4359D01*
X14123Y4263D01*
X13924Y4110D01*
X13771Y3911D01*
X13675Y3678D01*
X13642Y3429D01*
X13675Y3180D01*
X13771Y2947D01*
X13924Y2748D01*
X14123Y2595D01*
X14356Y2499D01*
X14605Y2466D01*
X14854Y2499D01*
X15087Y2595D01*
X15286Y2748D01*
X15439Y2947D01*
X15535Y3180D01*
X15568Y3429D01*
X15535Y3678D01*
X15439Y3911D01*
X15286Y4110D01*
X15087Y4263D01*
X14854Y4359D01*
X14605Y4392D01*
D02*
G37*
G36*
X12065D02*
X11816Y4359D01*
X11583Y4263D01*
X11384Y4110D01*
X11231Y3911D01*
X11135Y3678D01*
X11102Y3429D01*
X11135Y3180D01*
X11231Y2947D01*
X11384Y2748D01*
X11583Y2595D01*
X11816Y2499D01*
X12065Y2466D01*
X12314Y2499D01*
X12547Y2595D01*
X12746Y2748D01*
X12899Y2947D01*
X12995Y3180D01*
X13028Y3429D01*
X12995Y3678D01*
X12899Y3911D01*
X12746Y4110D01*
X12547Y4263D01*
X12314Y4359D01*
X12065Y4392D01*
D02*
G37*
G36*
X6985D02*
X6736Y4359D01*
X6503Y4263D01*
X6304Y4110D01*
X6151Y3911D01*
X6055Y3678D01*
X6022Y3429D01*
X6055Y3180D01*
X6151Y2947D01*
X6304Y2748D01*
X6503Y2595D01*
X6736Y2499D01*
X6985Y2466D01*
X7234Y2499D01*
X7467Y2595D01*
X7666Y2748D01*
X7819Y2947D01*
X7915Y3180D01*
X7948Y3429D01*
X7915Y3678D01*
X7819Y3911D01*
X7666Y4110D01*
X7467Y4263D01*
X7234Y4359D01*
X6985Y4392D01*
D02*
G37*
G36*
X10537Y3229D02*
X9725D01*
Y2417D01*
X9794Y2426D01*
X10044Y2530D01*
X10259Y2695D01*
X10424Y2910D01*
X10528Y3160D01*
X10537Y3229D01*
D02*
G37*
G36*
X9325D02*
X8513D01*
X8522Y3160D01*
X8626Y2910D01*
X8791Y2695D01*
X9006Y2530D01*
X9256Y2426D01*
X9325Y2417D01*
Y3229D01*
D02*
G37*
%LPD*%
G36*
X52978Y19154D02*
Y18328D01*
X52888Y18193D01*
X52851Y18006D01*
X52888Y17819D01*
X52994Y17660D01*
X53153Y17554D01*
X53340Y17517D01*
X53527Y17554D01*
X53686Y17660D01*
X53740Y17741D01*
X53867Y17702D01*
Y16533D01*
X53063Y15729D01*
X49022D01*
X48883Y15701D01*
X48766Y15623D01*
X47699Y14556D01*
X47246D01*
X47195Y14651D01*
X47190Y14683D01*
X47225Y14859D01*
Y19990D01*
X47828Y20593D01*
X51539D01*
X52978Y19154D01*
D02*
G37*
D10*
X33762Y23221D02*
Y24378D01*
X33597Y24543D02*
X33762Y24378D01*
X33597Y24543D02*
Y24638D01*
X28829Y15621D02*
X29300Y15150D01*
X27466Y15621D02*
X28829D01*
X29300Y13929D02*
Y15150D01*
X24093Y13660D02*
X24989Y14556D01*
X28533D01*
X28575Y14598D01*
X33020Y22479D02*
X33762Y23221D01*
X31750Y22479D02*
X33020D01*
X28321Y19050D02*
X31750Y22479D01*
X24892Y19050D02*
X28321D01*
X24373Y18006D02*
X27714D01*
X29337Y16383D01*
X44820Y11292D02*
Y11811D01*
X42534Y9006D02*
X44820Y11292D01*
X41645Y9006D02*
X42534D01*
X41168Y8529D02*
X41645Y9006D01*
X27940Y12319D02*
X28569Y11690D01*
X27940Y12319D02*
Y13660D01*
D11*
X-53Y12229D02*
Y24229D01*
D13*
X24003Y5633D02*
Y6164D01*
X23958Y5588D02*
X24003Y5633D01*
Y6164D02*
X24570Y6731D01*
X25598D01*
X635Y31437D02*
X1635D01*
Y30937D01*
X1468Y30771D01*
X1135D01*
X968Y30937D01*
Y31437D01*
X1468Y29771D02*
X1635Y29938D01*
Y30271D01*
X1468Y30437D01*
X802D01*
X635Y30271D01*
Y29938D01*
X802Y29771D01*
X1635Y29438D02*
X635D01*
Y28938D01*
X802Y28771D01*
X968D01*
X1135Y28938D01*
Y29438D01*
Y28938D01*
X1301Y28771D01*
X1468D01*
X1635Y28938D01*
Y29438D01*
Y26772D02*
Y27438D01*
X635D01*
Y26772D01*
X1135Y27438D02*
Y27105D01*
X1635Y25772D02*
X635D01*
Y26272D01*
X802Y26439D01*
X1135D01*
X1301Y26272D01*
Y25772D01*
X302Y25106D02*
Y24939D01*
X468Y24773D01*
X1301D01*
Y25272D01*
X1135Y25439D01*
X802D01*
X635Y25272D01*
Y24773D01*
Y23940D02*
Y24273D01*
X802Y24439D01*
X1135D01*
X1301Y24273D01*
Y23940D01*
X1135Y23773D01*
X968D01*
Y24439D01*
D14*
X47498Y20955D02*
Y23241D01*
X20667Y24003D02*
Y28482D01*
X18161Y33782D02*
Y38608D01*
X21082Y4064D02*
Y6960D01*
X32766Y25153D02*
X33117Y25504D01*
X32766Y24384D02*
Y25153D01*
X33117Y25504D02*
X34059D01*
X34925Y24638D01*
Y23749D02*
Y24638D01*
X21082Y4064D02*
X21209Y3937D01*
X46990Y23749D02*
X47498Y23241D01*
X46736Y24003D02*
X46990Y23749D01*
X46736Y14859D02*
Y20193D01*
X47498Y20955D01*
X44831Y24003D02*
X46736D01*
X35941Y22733D02*
X43561D01*
X44831Y24003D01*
X34925Y23749D02*
X35941Y22733D01*
X20667Y21717D02*
Y24003D01*
Y20159D02*
Y21717D01*
X26150D02*
X28817Y24384D01*
X32766D01*
X20667Y21717D02*
X26150D01*
X18161Y30988D02*
Y33782D01*
X21082Y6960D02*
X21601D01*
X19980D02*
X21082D01*
X19476Y7463D02*
X19980Y6960D01*
X19476Y7463D02*
Y8842D01*
X19301Y9017D02*
X19476Y8842D01*
X19304Y9020D02*
Y10414D01*
X19301Y9017D02*
X19304Y9020D01*
X18545Y11173D02*
X19304Y10414D01*
X18545Y11173D02*
Y12065D01*
Y18037D01*
X20667Y20159D01*
X16838Y39439D02*
X17330D01*
X16129D02*
X16838D01*
X18161Y30988D02*
X20667Y28482D01*
X17330Y39439D02*
X18161Y38608D01*
D15*
X24257Y26670D02*
X25100Y27513D01*
X22801Y26670D02*
X24257D01*
D16*
X57758Y10687D02*
Y9688D01*
Y10187D01*
X57091D01*
Y10687D01*
Y9688D01*
X56258Y10687D02*
X56591D01*
X56758Y10521D01*
Y9854D01*
X56591Y9688D01*
X56258D01*
X56091Y9854D01*
Y10521D01*
X56258Y10687D01*
X55758D02*
X55092D01*
X55425D01*
Y9688D01*
X54759Y10687D02*
Y9688D01*
X54425Y10021D01*
X54092Y9688D01*
Y10687D01*
X53759Y9688D02*
Y10354D01*
X53426Y10687D01*
X53092Y10354D01*
Y9688D01*
Y10187D01*
X53759D01*
X52759Y10687D02*
X52093D01*
X52426D01*
Y9688D01*
X51093Y10687D02*
X51760D01*
Y9688D01*
X51093D01*
X51760Y10187D02*
X51426D01*
X50760Y9688D02*
Y10687D01*
X50260D01*
X50093Y10521D01*
Y10187D01*
X50260Y10021D01*
X50760D01*
X50427D02*
X50093Y9688D01*
X0Y0D02*
Y52578D01*
Y0D02*
X59944D01*
Y52578D01*
X0D02*
X59944D01*
D26*
X27398Y6731D02*
D03*
X25598D02*
D03*
D27*
X42672Y5853D02*
D03*
Y4053D02*
D03*
X12954Y10149D02*
D03*
Y8349D02*
D03*
X8509Y8360D02*
D03*
Y10160D02*
D03*
X10668Y10149D02*
D03*
Y8349D02*
D03*
X8509Y15632D02*
D03*
Y13832D02*
D03*
X10668Y15632D02*
D03*
Y13832D02*
D03*
X12954D02*
D03*
Y15632D02*
D03*
D39*
X47495Y22225D02*
D03*
X50295D02*
D03*
X22101Y9017D02*
D03*
X19301D02*
D03*
X18164Y35560D02*
D03*
X15364D02*
D03*
D75*
X22741Y28956D02*
X26924D01*
X21601Y30096D02*
X22741Y28956D01*
X21601Y30096D02*
Y37222D01*
X16178Y12397D02*
X16764Y11811D01*
X10541Y12397D02*
X16178D01*
X8509Y13832D02*
X16394D01*
X17526Y8001D02*
Y12700D01*
X16394Y13832D02*
X17526Y12700D01*
X28688Y26289D02*
X34469D01*
X35612Y25146D01*
X36068D01*
X36927Y8031D02*
Y9035D01*
X37084Y9192D01*
Y9260D01*
X36927Y8031D02*
X37846Y7112D01*
Y2413D02*
Y7112D01*
X36576Y1143D02*
X37846Y2413D01*
X37592Y8616D02*
X38481Y7727D01*
Y1778D02*
Y7727D01*
X37306Y603D02*
X38481Y1778D01*
X21495Y603D02*
X37306D01*
X40259Y5588D02*
Y9779D01*
X39751Y10287D02*
X40259Y9779D01*
X36654Y10287D02*
X39751D01*
X36195Y9828D02*
X36654Y10287D01*
X40259Y5588D02*
X40524Y5853D01*
X42672D01*
X36195Y8783D02*
Y9828D01*
X8509Y10160D02*
X12943D01*
X19177Y2921D02*
X21495Y603D01*
X19177Y2921D02*
Y5334D01*
X16764Y7747D02*
X19177Y5334D01*
X16764Y7747D02*
Y9144D01*
X15759Y10149D02*
X16764Y9144D01*
X12954Y10149D02*
X15759D01*
X21844Y1143D02*
X36576D01*
X19812Y3175D02*
X21844Y1143D01*
X19812Y3175D02*
Y5715D01*
X17526Y8001D02*
X19812Y5715D01*
X8509Y15632D02*
Y23495D01*
X6223Y25781D02*
X8509Y23495D01*
X3429Y25781D02*
X6223D01*
X12943Y10160D02*
X12954Y10149D01*
X7239Y8382D02*
X8487D01*
X8509Y8360D01*
X6985Y8636D02*
X7239Y8382D01*
X6985Y8636D02*
Y18557D01*
X22860Y11049D02*
X22987Y10922D01*
Y7405D02*
Y10922D01*
X21993Y6411D02*
X22987Y7405D01*
X23626Y6989D02*
Y13125D01*
X22801Y6164D02*
X23626Y6989D01*
X22801Y3878D02*
Y6164D01*
X21993Y4318D02*
Y6411D01*
X22618Y3695D02*
X22801Y3878D01*
X22860Y11049D02*
Y13798D01*
X23626Y13125D02*
X24093Y13592D01*
Y13660D01*
X22618Y2667D02*
Y3695D01*
X28702Y27178D02*
X34520D01*
X35326Y26372D01*
X21463Y39370D02*
X21844Y38989D01*
X21463Y39370D02*
Y39751D01*
X21457Y39757D02*
X21463Y39751D01*
X21457Y39757D02*
Y40265D01*
X21844Y37465D02*
Y38989D01*
X21601Y37222D02*
X21844Y37465D01*
X21428Y40294D02*
X21457Y40265D01*
X20701Y37372D02*
X20955Y37626D01*
Y38894D01*
X20701Y29810D02*
Y37372D01*
Y29810D02*
X22309Y28202D01*
X26775D01*
X28688Y26289D01*
X26924Y28956D02*
X28702Y27178D01*
X36068Y25146D02*
X36576Y24638D01*
Y23622D02*
Y24638D01*
X6223Y20447D02*
X6985Y19685D01*
Y18557D02*
Y19685D01*
X41783Y38894D02*
X49244D01*
X52959Y35179D01*
Y31623D02*
Y35179D01*
X51689Y30353D02*
X52959Y31623D01*
X51689Y22733D02*
Y30353D01*
Y22733D02*
X54229Y20193D01*
Y16383D02*
Y20193D01*
X53213Y15367D02*
X54229Y16383D01*
X49022Y15367D02*
X53213D01*
X47849Y14194D02*
X49022Y15367D01*
X44099Y14194D02*
X47849D01*
X43815Y14478D02*
X44099Y14194D01*
X43815Y14478D02*
Y16637D01*
X22767Y24003D02*
X24384D01*
X26500Y26119D01*
Y27537D01*
X46990Y23749D02*
Y23811D01*
X49468Y26289D01*
X47498Y20955D02*
X51689D01*
X53340Y19304D01*
Y18006D02*
Y19304D01*
D77*
X47371Y33205D02*
D03*
Y35745D02*
D03*
D78*
X3429Y28321D02*
D03*
X56590Y15823D02*
D03*
D79*
X3429Y25781D02*
D03*
X56590Y20903D02*
D03*
Y18363D02*
D03*
X9525Y3429D02*
D03*
X12065D02*
D03*
X14605D02*
D03*
X17145D02*
D03*
X6985D02*
D03*
D80*
X4445D02*
D03*
D81*
X5924Y16002D02*
D03*
X6223Y20447D02*
D03*
X23241Y30607D02*
D03*
X17748Y13929D02*
D03*
X16764Y11811D02*
D03*
X10541Y12397D02*
D03*
X33597Y24638D02*
D03*
X16237Y21590D02*
D03*
X14097Y32660D02*
D03*
X30997Y10911D02*
D03*
X41974Y11049D02*
D03*
Y21272D02*
D03*
X29990Y22225D02*
D03*
X27812Y20701D02*
D03*
X25013Y20706D02*
D03*
X13589Y36438D02*
D03*
X14500Y24130D02*
D03*
X47305Y26229D02*
D03*
X45757Y18034D02*
D03*
X46228Y21754D02*
D03*
X48387Y13208D02*
D03*
X47255Y10287D02*
D03*
X42177Y725D02*
D03*
X32385Y3113D02*
D03*
X35306Y2000D02*
D03*
Y3048D02*
D03*
X26173Y8790D02*
D03*
X28558Y7308D02*
D03*
X28448Y4579D02*
D03*
X19651Y1259D02*
D03*
X13970Y18506D02*
D03*
X9271Y32660D02*
D03*
X8114Y30480D02*
D03*
X6885Y32660D02*
D03*
X17095Y28702D02*
D03*
X19274Y32131D02*
D03*
X38547Y40294D02*
D03*
X37326Y28133D02*
D03*
X36571Y29599D02*
D03*
X39116Y18798D02*
D03*
Y16258D02*
D03*
Y13718D02*
D03*
X36576Y18798D02*
D03*
Y16258D02*
D03*
Y13718D02*
D03*
X34036Y18798D02*
D03*
Y16258D02*
D03*
Y13718D02*
D03*
X25019Y3025D02*
D03*
X26173Y13506D02*
D03*
X33020Y41910D02*
D03*
X31750D02*
D03*
X30480D02*
D03*
X29210D02*
D03*
X27940D02*
D03*
X26670D02*
D03*
X58420D02*
D03*
X57150D02*
D03*
X55880D02*
D03*
X54610D02*
D03*
X53340D02*
D03*
X52070D02*
D03*
X50800D02*
D03*
X49530D02*
D03*
X48260D02*
D03*
X46990D02*
D03*
X45720D02*
D03*
X44450D02*
D03*
X43180D02*
D03*
X41910D02*
D03*
X40640D02*
D03*
X39370D02*
D03*
X38100D02*
D03*
X32529Y40259D02*
D03*
Y37719D02*
D03*
Y35179D02*
D03*
Y32639D02*
D03*
X29989Y40259D02*
D03*
Y37719D02*
D03*
Y35179D02*
D03*
Y32639D02*
D03*
X27449Y40259D02*
D03*
Y37719D02*
D03*
Y35179D02*
D03*
Y32639D02*
D03*
X21590Y41910D02*
D03*
X20320D02*
D03*
X19050D02*
D03*
X17780D02*
D03*
X16510D02*
D03*
X15240D02*
D03*
X13970D02*
D03*
X12700D02*
D03*
X11430D02*
D03*
X10160D02*
D03*
X8890D02*
D03*
X7620D02*
D03*
X6350D02*
D03*
X5080D02*
D03*
X3810D02*
D03*
X2540D02*
D03*
X1270D02*
D03*
X23958Y5588D02*
D03*
X21993Y4318D02*
D03*
X35326Y26372D02*
D03*
X41168Y8529D02*
D03*
X44820Y11811D02*
D03*
X41783Y38894D02*
D03*
X20955D02*
D03*
X21428Y40294D02*
D03*
X49468Y26289D02*
D03*
X46736Y14859D02*
D03*
X44831Y24003D02*
D03*
X28569Y11690D02*
D03*
X18161Y33782D02*
D03*
X21209Y3937D02*
D03*
X21601Y6960D02*
D03*
X16129Y39439D02*
D03*
X16838D02*
D03*
X38590Y8765D02*
D03*
X37592Y8616D02*
D03*
X36195Y8783D02*
D03*
X37084Y9260D02*
D03*
X18545Y12065D02*
D03*
X24373Y18006D02*
D03*
X24892Y19050D02*
D03*
X29337Y16383D02*
D03*
X22618Y2667D02*
D03*
X43815Y19685D02*
D03*
X43644Y12506D02*
D03*
X28575Y14598D02*
D03*
X36576Y23622D02*
D03*
X29300Y13929D02*
D03*
X43815Y16637D02*
D03*
X33147Y23622D02*
D03*
X22860Y13798D02*
D03*
X24500Y11938D02*
D03*
X28569Y13010D02*
D03*
X27940Y13660D02*
D03*
X53340Y18006D02*
D03*
X24093Y13660D02*
D03*
X32766Y24384D02*
D03*
X48387Y18006D02*
D03*
X12446Y18557D02*
D03*
X6985D02*
D03*
X26500Y27537D02*
D03*
X25100Y27513D02*
D03*
D82*
X56515Y3557D02*
D03*
X3429Y9906D02*
D03*
X56515Y34417D02*
D03*
X3429D02*
D03*
D83*
X20701Y26670D02*
D03*
X22801D02*
D03*
X20667Y24003D02*
D03*
X22767D02*
D03*
X27466Y15621D02*
D03*
X25366D02*
D03*
D84*
X40259Y3488D02*
D03*
Y5588D02*
D03*
M02*
