G04*
G04 #@! TF.GenerationSoftware,Altium Limited,Altium Designer,19.0.14 (431)*
G04*
G04 Layer_Color=8421504*
%FSLAX43Y43*%
%MOMM*%
G71*
G01*
G75*
%ADD11C,0.100*%
%ADD13C,0.200*%
%ADD16C,0.254*%
%ADD18R,1.600X2.100*%
%ADD19R,1.350X0.400*%
%ADD20R,1.900X1.800*%
%ADD21R,1.900X1.900*%
%ADD22R,1.000X2.450*%
%ADD23R,2.450X1.000*%
%ADD24C,1.000*%
%ADD25R,0.500X0.350*%
%ADD26R,1.100X1.100*%
%ADD27R,1.100X1.100*%
%ADD28R,1.900X2.400*%
%ADD29R,0.230X0.350*%
%ADD30R,0.350X0.230*%
%ADD31R,1.100X1.250*%
%ADD32R,2.108X1.397*%
%ADD33R,1.000X0.600*%
%ADD34R,1.000X1.400*%
%ADD35R,1.680X3.150*%
%ADD36O,1.800X0.300*%
%ADD37O,0.300X1.800*%
%ADD38R,1.200X1.200*%
%ADD39R,0.950X1.700*%
%ADD40R,1.700X0.950*%
%ADD41R,3.300X2.400*%
%ADD42R,1.000X2.400*%
%ADD43R,1.400X1.200*%
D11*
X-53Y12229D02*
Y24229D01*
D13*
X635Y31437D02*
X1635D01*
Y30937D01*
X1468Y30771D01*
X1135D01*
X968Y30937D01*
Y31437D01*
X1468Y29771D02*
X1635Y29938D01*
Y30271D01*
X1468Y30437D01*
X802D01*
X635Y30271D01*
Y29938D01*
X802Y29771D01*
X1635Y29438D02*
X635D01*
Y28938D01*
X802Y28771D01*
X968D01*
X1135Y28938D01*
Y29438D01*
Y28938D01*
X1301Y28771D01*
X1468D01*
X1635Y28938D01*
Y29438D01*
Y26772D02*
Y27438D01*
X635D01*
Y26772D01*
X1135Y27438D02*
Y27105D01*
X1635Y25772D02*
X635D01*
Y26272D01*
X802Y26439D01*
X1135D01*
X1301Y26272D01*
Y25772D01*
X302Y25106D02*
Y24939D01*
X468Y24773D01*
X1301D01*
Y25272D01*
X1135Y25439D01*
X802D01*
X635Y25272D01*
Y24773D01*
Y23940D02*
Y24273D01*
X802Y24439D01*
X1135D01*
X1301Y24273D01*
Y23940D01*
X1135Y23773D01*
X968D01*
Y24439D01*
D16*
X0Y0D02*
Y52578D01*
Y0D02*
X59944D01*
Y52578D01*
X0D02*
X59944D01*
D18*
X3947Y15129D02*
D03*
Y21329D02*
D03*
D19*
X4072Y16929D02*
D03*
Y17579D02*
D03*
Y19529D02*
D03*
Y18879D02*
D03*
Y18229D02*
D03*
D20*
X1397Y22029D02*
D03*
Y14429D02*
D03*
D21*
Y19429D02*
D03*
Y17029D02*
D03*
D22*
X25100Y29599D02*
D03*
X26500D02*
D03*
X27900D02*
D03*
X29300D02*
D03*
X30700D02*
D03*
X32100D02*
D03*
X33500D02*
D03*
X34900D02*
D03*
D23*
X36295Y41694D02*
D03*
Y40294D02*
D03*
Y38894D02*
D03*
Y37494D02*
D03*
Y36094D02*
D03*
Y34694D02*
D03*
Y33294D02*
D03*
Y31894D02*
D03*
X23705D02*
D03*
Y33294D02*
D03*
Y34694D02*
D03*
Y36094D02*
D03*
Y37494D02*
D03*
Y38894D02*
D03*
Y40294D02*
D03*
Y41694D02*
D03*
D24*
X22860Y12218D02*
D03*
X23368Y15181D02*
D03*
X49530Y14097D02*
D03*
X45085Y15113D02*
D03*
X45201Y21082D02*
D03*
X42799Y35560D02*
D03*
X39243Y30861D02*
D03*
Y32766D02*
D03*
Y34671D02*
D03*
Y36576D02*
D03*
Y38894D02*
D03*
X33528Y27167D02*
D03*
X19801Y38894D02*
D03*
X19812Y40894D02*
D03*
X15113Y40640D02*
D03*
X17145Y36449D02*
D03*
X6223Y22813D02*
D03*
X17399Y12954D02*
D03*
X17145Y19506D02*
D03*
Y17607D02*
D03*
X27900Y1397D02*
D03*
D25*
X27246Y12360D02*
D03*
Y13010D02*
D03*
Y13660D02*
D03*
Y14310D02*
D03*
X25196Y14310D02*
D03*
Y13660D02*
D03*
Y13010D02*
D03*
Y12360D02*
D03*
D26*
X26173Y10541D02*
D03*
X24373D02*
D03*
X26659Y5969D02*
D03*
X28459D02*
D03*
X19801Y5842D02*
D03*
X21601D02*
D03*
X47255Y8890D02*
D03*
X45455D02*
D03*
X44947Y13208D02*
D03*
X46747D02*
D03*
X45201Y16891D02*
D03*
X47001D02*
D03*
X45201Y19177D02*
D03*
X47001D02*
D03*
X31761Y24130D02*
D03*
X29961D02*
D03*
X20690Y24003D02*
D03*
X22490D02*
D03*
X20701Y26289D02*
D03*
X22501D02*
D03*
X15737Y30734D02*
D03*
X17537D02*
D03*
X21347Y14531D02*
D03*
X19547D02*
D03*
X21347Y12192D02*
D03*
X19547D02*
D03*
X14870Y19812D02*
D03*
X13070D02*
D03*
X14870Y17145D02*
D03*
X13070D02*
D03*
X46620Y22987D02*
D03*
X44820D02*
D03*
D27*
X28569Y10552D02*
D03*
Y8752D02*
D03*
X30861Y5185D02*
D03*
Y6985D02*
D03*
X21209Y1259D02*
D03*
Y3059D02*
D03*
X33675D02*
D03*
Y1259D02*
D03*
X36850Y3059D02*
D03*
Y1259D02*
D03*
X39751Y7377D02*
D03*
Y5577D02*
D03*
X49468Y29475D02*
D03*
Y27675D02*
D03*
X42545Y28967D02*
D03*
Y27167D02*
D03*
X15240Y38238D02*
D03*
Y36438D02*
D03*
X15992Y10425D02*
D03*
Y8625D02*
D03*
X13368Y10425D02*
D03*
Y8625D02*
D03*
X10743Y10425D02*
D03*
Y8625D02*
D03*
X8118Y10425D02*
D03*
Y8625D02*
D03*
X9144Y12898D02*
D03*
Y14698D02*
D03*
X6858D02*
D03*
Y12898D02*
D03*
D28*
X33276Y5931D02*
D03*
X37376D02*
D03*
D29*
X23514Y1798D02*
D03*
X23944D02*
D03*
X24374D02*
D03*
X24804D02*
D03*
X25234D02*
D03*
X25664D02*
D03*
X26094D02*
D03*
X26524D02*
D03*
Y4298D02*
D03*
X26094D02*
D03*
X25664D02*
D03*
X25234D02*
D03*
X24804D02*
D03*
X24374D02*
D03*
X23944D02*
D03*
X23514D02*
D03*
D30*
Y2403D02*
D03*
Y2833D02*
D03*
Y3263D02*
D03*
X26524Y2403D02*
D03*
Y2833D02*
D03*
Y3263D02*
D03*
Y3693D02*
D03*
X23514D02*
D03*
D31*
X30968Y3175D02*
D03*
X28468D02*
D03*
D32*
X42177Y2324D02*
D03*
X51295D02*
D03*
X42177Y6820D02*
D03*
X51295D02*
D03*
D33*
X52218Y18956D02*
D03*
Y18006D02*
D03*
Y17056D02*
D03*
X49468D02*
D03*
Y18006D02*
D03*
Y18956D02*
D03*
X8277Y17607D02*
D03*
Y18557D02*
D03*
Y19507D02*
D03*
X11027D02*
D03*
Y18557D02*
D03*
Y17607D02*
D03*
D34*
X46355Y30183D02*
D03*
X47305Y27983D02*
D03*
X45405D02*
D03*
D35*
X8024Y22813D02*
D03*
X12804D02*
D03*
D36*
X31026Y12506D02*
D03*
Y13006D02*
D03*
Y13506D02*
D03*
Y14006D02*
D03*
Y14506D02*
D03*
Y15006D02*
D03*
Y15506D02*
D03*
Y16006D02*
D03*
Y16506D02*
D03*
Y17006D02*
D03*
Y17506D02*
D03*
Y18006D02*
D03*
Y18506D02*
D03*
Y19006D02*
D03*
Y19506D02*
D03*
Y20006D02*
D03*
X42126D02*
D03*
Y19506D02*
D03*
Y19006D02*
D03*
Y18506D02*
D03*
Y18006D02*
D03*
Y17506D02*
D03*
Y17006D02*
D03*
Y16506D02*
D03*
Y16006D02*
D03*
Y15506D02*
D03*
Y15006D02*
D03*
Y14506D02*
D03*
Y14006D02*
D03*
Y13506D02*
D03*
Y13006D02*
D03*
Y12506D02*
D03*
D37*
X32826Y21806D02*
D03*
X33326D02*
D03*
X33826D02*
D03*
X34326D02*
D03*
X34826D02*
D03*
X35326D02*
D03*
X35826D02*
D03*
X36326D02*
D03*
X36826D02*
D03*
X37326D02*
D03*
X37826D02*
D03*
X38326D02*
D03*
X38826D02*
D03*
X39326D02*
D03*
X39826D02*
D03*
X40326D02*
D03*
Y10706D02*
D03*
X39826D02*
D03*
X39326D02*
D03*
X38826D02*
D03*
X38326D02*
D03*
X37826D02*
D03*
X37326D02*
D03*
X36826D02*
D03*
X36326D02*
D03*
X35826D02*
D03*
X35326D02*
D03*
X34826D02*
D03*
X34326D02*
D03*
X33826D02*
D03*
X33326D02*
D03*
X32826D02*
D03*
D38*
X18322Y26162D02*
D03*
X16222D02*
D03*
X18322Y24130D02*
D03*
X16222D02*
D03*
D39*
X15745Y28321D02*
D03*
X18545D02*
D03*
D40*
X20320Y33785D02*
D03*
Y30985D02*
D03*
D41*
X10414Y38460D02*
D03*
D42*
X12714Y32660D02*
D03*
X10414D02*
D03*
X8114D02*
D03*
D43*
X10134Y28448D02*
D03*
X13234D02*
D03*
X10134Y26035D02*
D03*
X13234D02*
D03*
M02*
