G04*
G04 #@! TF.GenerationSoftware,Altium Limited,Altium Designer,19.0.14 (431)*
G04*
G04 Layer_Color=128*
%FSLAX43Y43*%
%MOMM*%
G71*
G01*
G75*
%ADD11C,0.100*%
%ADD13C,0.200*%
%ADD16C,0.254*%
%ADD26R,1.100X1.100*%
%ADD27R,1.100X1.100*%
%ADD39R,0.950X1.700*%
%ADD83R,1.250X1.500*%
%ADD84R,1.500X1.250*%
D11*
X-53Y12229D02*
Y24229D01*
D13*
X635Y31437D02*
X1635D01*
Y30937D01*
X1468Y30771D01*
X1135D01*
X968Y30937D01*
Y31437D01*
X1468Y29771D02*
X1635Y29938D01*
Y30271D01*
X1468Y30437D01*
X802D01*
X635Y30271D01*
Y29938D01*
X802Y29771D01*
X1635Y29438D02*
X635D01*
Y28938D01*
X802Y28771D01*
X968D01*
X1135Y28938D01*
Y29438D01*
Y28938D01*
X1301Y28771D01*
X1468D01*
X1635Y28938D01*
Y29438D01*
Y26772D02*
Y27438D01*
X635D01*
Y26772D01*
X1135Y27438D02*
Y27105D01*
X1635Y25772D02*
X635D01*
Y26272D01*
X802Y26439D01*
X1135D01*
X1301Y26272D01*
Y25772D01*
X302Y25106D02*
Y24939D01*
X468Y24773D01*
X1301D01*
Y25272D01*
X1135Y25439D01*
X802D01*
X635Y25272D01*
Y24773D01*
Y23940D02*
Y24273D01*
X802Y24439D01*
X1135D01*
X1301Y24273D01*
Y23940D01*
X1135Y23773D01*
X968D01*
Y24439D01*
D16*
X0Y0D02*
Y52578D01*
Y0D02*
X59944D01*
Y52578D01*
X0D02*
X59944D01*
D26*
X27398Y6731D02*
D03*
X25598D02*
D03*
D27*
X42672Y5853D02*
D03*
Y4053D02*
D03*
X12954Y10149D02*
D03*
Y8349D02*
D03*
X8509Y8360D02*
D03*
Y10160D02*
D03*
X10668Y10149D02*
D03*
Y8349D02*
D03*
X8509Y15632D02*
D03*
Y13832D02*
D03*
X10668Y15632D02*
D03*
Y13832D02*
D03*
X12954D02*
D03*
Y15632D02*
D03*
D39*
X47495Y22225D02*
D03*
X50295D02*
D03*
X22101Y9017D02*
D03*
X19301D02*
D03*
X18164Y35560D02*
D03*
X15364D02*
D03*
D83*
X20701Y26670D02*
D03*
X22801D02*
D03*
X20667Y24003D02*
D03*
X22767D02*
D03*
X27466Y15621D02*
D03*
X25366D02*
D03*
D84*
X40259Y3488D02*
D03*
Y5588D02*
D03*
M02*
